<?xml version="1.0" encoding="UTF-8"?><svg id="Capa_2" xmlns="http://www.w3.org/2000/svg" viewBox="0 0 1339.28 222.04"><defs><style>.cls-1{fill:#edbc53;}</style></defs><g id="Capa_2-2"><g id="Capa_1-2"><g id="Capa_1-2-2"><g><path class="cls-1" d="M176.92,133.81c-1.18,0-2.79,.55-4.81,1.63-2.02,1.09-6.07,2.55-12.15,4.39,2.87-5.85,4.93-11.69,6.2-17.54,1.26-5.85,1.9-11.61,1.9-17.29,0-12.03-2.66-23.47-7.97-34.33-5.32-10.86-12.53-20.63-21.64-29.32-9.11-8.69-19.49-15.95-31.13-21.8s-23.79-9.77-36.44-11.78c-.17-2.17-.51-4.01-1.01-5.51-.51-1.5-1.26-2.26-2.28-2.26-1.52,0-3.04,1.34-4.56,4.01-.17,.34-.38,.71-.63,1.13s-.55,.96-.89,1.63c-1.52-.16-3.04-.29-4.56-.38-1.52-.08-3.04-.12-4.56-.12-8.94,0-17.88,1.17-26.83,3.51-6.75,1.67-12.7,3.68-17.84,6.02C2.57,18.14,0,20.06,0,21.56c0,.84,.59,1.34,1.77,1.5,2.87-.83,7.3-1.71,13.29-2.63,5.99-.92,12.61-1.38,19.87-1.38,3.37,0,6.79,.17,10.25,.5,3.46,.34,6.87,.75,10.25,1.25-3.04,8.02-6.5,18.05-10.38,30.07-3.88,12.03-7.64,25.06-11.26,39.1-3.63,14.04-6.58,28.16-8.86,42.35-2.28,14.2-3.42,27.57-3.42,40.1,0,4.01,.29,8.14,.89,12.4,.59,4.26,1.52,7.85,2.78,10.78,1.27,2.92,2.91,4.39,4.93,4.39,.17,0,.25-.09,.25-.25-.51-3.34-.93-6.81-1.26-10.4-.34-3.59-.51-7.98-.51-13.16,0-10.69,.92-22.55,2.78-35.59,1.85-13.03,4.47-26.48,7.84-40.35s7.47-27.4,12.27-40.6c4.81-13.2,10.25-25.23,16.32-36.09,14.51,3.68,27.84,9.65,39.99,17.92,12.15,8.27,21.89,18.34,29.23,30.2,7.34,11.87,11.01,25.23,11.01,40.1,0,6.02-.8,12.07-2.4,18.17-1.6,6.1-4.09,12.07-7.47,17.92l-52.89,20.05c-18.06,6.85-32.01,13.99-41.89,21.43-9.87,7.43-14.8,13.49-14.8,18.17,0,1,.59,2.67,1.77,5.01s2.7,4.47,4.56,6.39,3.63,2.96,5.32,3.13c5.57-.34,12.19-1.67,19.87-4.01s15.77-5.43,24.3-9.27c8.52-3.84,16.87-8.39,25.06-13.66,8.18-5.26,15.56-10.98,22.14-17.17,5.4-5.01,10.12-10.19,14.17-15.54,4.05-5.35,7.59-10.61,10.63-15.79l8.35-3.51c1.52-.67,3.29-1.63,5.32-2.88,2.02-1.25,3.79-2.46,5.31-3.63s2.28-1.92,2.28-2.26-.25-.5-.76-.5h.02Zm-62.01,39.09c-6.58,4.85-12.65,8.98-18.22,12.41-5.57,3.42-11.18,6.39-16.83,8.9s-11.81,4.8-18.47,6.89c-6.67,2.09-14.3,4.3-22.9,6.64,0-1.5,1.65-3.72,4.93-6.64,3.29-2.92,7.47-6.14,12.53-9.65s10.33-6.81,15.82-9.9c5.48-3.09,10.42-5.47,14.81-7.14,7.93-3.01,15.73-6.05,23.41-9.15,7.68-3.09,15.14-6.05,22.4-8.9-4.72,6.02-10.55,11.53-17.46,16.54h-.02Z"/><path class="cls-1" d="M250.81,137.69c0-1.42-.34-2.13-1.01-2.13-1.18,0-1.94,.5-2.28,1.5-1.18,2.68-2.91,5.98-5.19,9.9-2.28,3.93-4.85,7.81-7.72,11.65-2.87,3.85-5.95,7.02-9.24,9.52-3.29,2.51-6.71,3.76-10.25,3.76-4.05,0-6.92-2.51-8.6-7.52-1.69-5.01-2.53-10.86-2.53-17.54,0-4.01,.25-8.02,.76-12.03,5.57-2.51,11.05-5.51,16.45-9.02,5.4-3.51,9.87-7.35,13.41-11.53,3.54-4.17,5.32-8.35,5.32-12.53,0-2.17-1.23-4.17-3.67-6.02-2.45-1.84-5.53-3.55-9.24-5.14s-7.51-2.96-11.39-4.13c-1.01-1.5-2.7-3.47-5.06-5.89s-4.47-3.63-6.33-3.63-3.12,1.17-3.79,3.51c-.34,1.34-1.14,4.26-2.4,8.77-1.27,4.51-2.57,9.94-3.92,16.29-1.35,6.35-2.45,12.95-3.29,19.8-.34,2.68-.68,5.81-1.01,9.4-.34,3.59-.51,7.39-.51,11.4,0,5.85,.55,11.65,1.64,17.42,1.1,5.76,3.2,10.49,6.33,14.16,3.12,3.68,7.55,5.51,13.29,5.51,5.4,0,10.16-1.75,14.3-5.26,4.13-3.51,7.63-7.1,10.5-10.78,2.02-2.67,4.09-5.8,6.2-9.4,2.11-3.59,4.17-7.39,6.2-11.4,2.02-4.34,3.04-7.23,3.04-8.65h-.01Zm-41.63-29.19c1.43-6.02,3.16-11.69,5.19-17.04,3.71,1.34,6.96,2.97,9.74,4.89,2.79,1.92,4.18,3.8,4.18,5.64,0,5.18-2.32,9.99-6.96,14.41-4.64,4.43-9.91,8.23-15.82,11.4,1.01-6.85,2.23-13.28,3.67-19.3h0Z"/><path class="cls-1" d="M417.33,149.09c-.34,.17-.59,.42-.76,.75-5.06,7.02-11.35,13.28-18.85,18.8-7.51,5.51-15.52,9.86-24.04,13.03-8.52,3.18-17,4.76-25.43,4.76-4.9,0-9.24-1.08-13.03-3.26-3.8-2.17-5.69-6.93-5.69-14.28,0-6.35,1.47-13.28,4.43-20.8,2.95-7.52,6.87-14.95,11.77-22.31,4.89-7.35,10.21-13.78,15.94-19.3,8.6-8.18,16.11-13.82,22.53-16.92,6.41-3.09,11.39-4.64,14.93-4.64h1.65c.59,0,.89,.34,.89,1,0,1.17-.63,3.13-1.9,5.89s-2.53,5.81-3.8,9.15c-1.27,3.35-1.9,6.52-1.9,9.52,0,4.68,.8,8.39,2.4,11.15s2.99,4.13,4.18,4.13c1.35,0,2.19-.92,2.53-2.76,0-2.51,.46-5.55,1.39-9.15,.92-3.59,2.02-7.14,3.29-10.65,1.27-3.51,2.53-6.64,3.8-9.4s2.23-4.47,2.91-5.14c.33-.33,.51-.75,.51-1.25,0-1.67-1.52-3.34-4.56-5.01-3.04-1.67-6.92-2.51-11.64-2.51-7.76,0-15.69,1.67-23.79,5.01-8.1,3.34-15.78,7.85-23.03,13.53-7.26,5.68-13.75,12.2-19.49,19.55-4.27,5.48-7.89,11.16-10.85,17.05h-.03c-1.01,0-3.08,.67-6.2,2.01-3.12,1.34-6.67,2.97-10.63,4.89-3.97,1.92-7.72,3.76-11.26,5.51s-6.16,2.97-7.85,3.63c-2.87-2.51-5.95-4.84-9.24-7.02-3.29-2.17-6.03-4.55-8.23-7.14-2.19-2.59-3.29-5.47-3.29-8.65,0-2.34,1.22-5.39,3.67-9.15s5.44-7.52,8.99-11.28c3.54-3.76,7.04-6.93,10.5-9.52,3.46-2.59,6.2-3.89,8.23-3.89-.34,1.67-1.06,4.43-2.15,8.27-1.1,3.84-1.65,7.44-1.65,10.78,0,1.17,.17,2.42,.51,3.76,.33,1.34,.84,2.01,1.52,2.01,1.35,0,2.02-1.58,2.02-4.76,0-2.84,.59-5.97,1.77-9.4,1.18-3.42,2.57-6.72,4.18-9.9,1.6-3.17,3.08-5.51,4.43-7.02,.34-.67,.51-1.09,.51-1.25,0-1.67-1.23-3.42-3.67-5.26-2.45-1.84-5.02-2.76-7.72-2.76-1.35,0-2.62,.34-3.8,1-2.87,1.67-6.29,3.8-10.25,6.39-3.97,2.59-7.85,5.6-11.64,9.02-3.79,3.43-6.96,7.19-9.49,11.28-2.53,4.1-3.8,8.48-3.8,13.16s1.14,8.65,3.42,12.4,4.93,7.14,7.97,10.15,5.82,5.56,8.35,7.64c2.53,2.09,4.13,3.63,4.81,4.64-1.01,.67-3.16,1.72-6.45,3.13-3.29,1.42-6.88,2.72-10.76,3.88-3.88,1.17-7.26,1.76-10.12,1.76-5.06,0-7.59,1.34-7.59,4.01,0,1.17,1.14,2.38,3.42,3.63s4.97,2.25,8.1,3.01c3.12,.75,5.95,1.13,8.48,1.13,3.54,0,7.13-.54,10.76-1.63,3.63-1.09,6.66-2.71,9.11-4.89,2.44-2.17,3.67-5.01,3.67-8.52,0-1.5-.25-3.01-.76-4.51,2.02-1,4.85-2.42,8.48-4.26s7.3-3.76,11.01-5.76c3.71-2.01,6.83-3.92,9.36-5.76,.65-.47,1.21-.92,1.7-1.35-.41,.91-.81,1.81-1.19,2.73-3.38,8.11-5.06,16.17-5.06,24.19,0,7.52,2.74,13.87,8.23,19.05,5.48,5.18,13.12,7.77,22.9,7.77,12.65,0,23.62-1.84,32.9-5.51s17.04-8.23,23.28-13.66c6.24-5.43,11.05-10.73,14.43-15.91,.67-.83,1.22-2.01,1.65-3.51,.42-1.5,.63-2.67,.63-3.51,0-.67-.17-1-.51-1h-.04Z"/><path class="cls-1" d="M571.84,99.85c-2.28-2.92-5.36-4.39-9.24-4.39-3.21,0-6.83,1.38-10.88,4.13s-8.19,6.35-12.4,10.78c-4.22,4.43-8.27,9.15-12.15,14.16-3.88,5.01-7.34,9.82-10.37,14.41-3.04,4.6-5.4,8.39-7.09,11.4,.84-4.84,2.02-11.4,3.54-19.67,1.52-8.27,3.2-17.42,5.06-27.44,1.86-10.03,3.75-20.18,5.69-30.45,1.94-10.27,3.75-20.05,5.44-29.32,1.68-9.27,3.04-17.17,4.05-23.68-.34-4.84-2.11-9.02-5.31-12.53-3.21-3.51-5.99-5.26-8.35-5.26-2.02,0-3.21,1.5-3.54,4.51-2.02,5.35-3.59,12.78-4.68,22.31-1.1,9.52-1.99,20.14-2.66,31.83-.68,11.7-1.39,23.73-2.15,36.09-.76,12.37-1.81,24.14-3.16,35.34-.2,1.64-.41,3.23-.63,4.81-.65,.56-1.41,1.54-2.28,2.96-1.44,2.34-3.08,5.22-4.94,8.65s-3.71,6.89-5.57,10.4-3.67,6.43-5.44,8.77c-1.77,2.34-3.33,3.51-4.68,3.51-1.18,0-2.32-.46-3.42-1.38s-1.65-3.97-1.65-9.15c0-4.34,.25-9.73,.76-16.17,.51-6.43,1.18-12.99,2.02-19.67s1.68-12.7,2.53-18.04c.84-5.35,1.52-9.02,2.02-11.03-1.01-2.34-2.66-4.47-4.93-6.39-2.28-1.92-4.35-2.88-6.2-2.88-1.18,0-1.86,.42-2.02,1.25-1.01,4.51-2.45,10.11-4.3,16.79-1.86,6.69-3.97,13.66-6.33,20.93s-4.77,14.08-7.21,20.43c-2.45,6.35-4.68,11.45-6.71,15.29-2.02,3.68-3.63,5.51-4.81,5.51-.85,0-1.35-1.04-1.52-3.13-.17-2.09-.25-4.3-.25-6.64,0-7.52,.63-15.95,1.9-25.31,1.26-9.36,2.49-18.5,3.67-27.44,1.18-8.94,1.77-16.58,1.77-22.93,0-1.34-.72-2.26-2.15-2.76-1.44-.5-3.33-.75-5.69-.75-2.53,0-5.15,.21-7.85,.63s-5.66,.79-8.86,1.13c-3.54,.34-5.32,1.42-5.32,3.26,0,1,1.01,1.5,3.04,1.5,1.85,0,4.13,.38,6.83,1.13,2.7,.75,4.39,1.8,5.06,3.13,.51,1.17,.84,2.55,1.01,4.13,.17,1.59,.25,3.22,.25,4.89,0,3.84-.34,7.85-1.01,12.03-.67,4.18-1.18,7.86-1.52,11.03-.85,7.02-1.77,14.08-2.79,21.18-1.01,7.1-1.52,14.5-1.52,22.18v3.38c0,1.09,.08,2.05,.25,2.88,.17,1,1.05,2.22,2.66,3.63,1.6,1.42,3.5,2.63,5.69,3.63s4.13,1.5,5.82,1.5c2.19,0,3.63-.92,4.3-2.76,.34-1.17,1.43-3.8,3.29-7.89,1.85-4.09,4.05-9.19,6.58-15.29,2.53-6.1,5.06-12.66,7.59-19.67,2.53-7.02,4.64-14.04,6.33-21.05-.34,3.01-.89,7.73-1.64,14.16-.76,6.43-1.44,13.7-2.02,21.8-.59,8.11-.89,16.25-.89,24.44,0,4.35,1.31,7.89,3.92,10.65,2.61,2.76,5.35,4.13,8.23,4.13,1.85,0,3.96-1.34,6.33-4.01,2.36-2.67,4.72-6.02,7.09-10.03,2.36-4.01,4.64-8.23,6.83-12.66,2.19-4.42,4.09-8.52,5.69-12.28,.07-.17,.14-.33,.21-.5-.92,4.81-1.96,9.29-3.13,13.41-.17,.5-.25,1.09-.25,1.75,0,2.68,1.52,5.06,4.56,7.14,3.04,2.09,5.9,3.3,8.6,3.63,6.41-.67,12.74-2.76,18.98-6.27,6.24-3.51,12.1-7.81,17.59-12.91,5.48-5.09,10.29-10.44,14.42-16.04,4.13-5.6,7.38-10.94,9.74-16.04s3.54-9.31,3.54-12.66c0-3.84-1.14-7.23-3.42-10.15h.05Zm-15.69,27.2c-3.46,6.35-7.93,12.2-13.41,17.54-5.48,5.35-11.35,9.86-17.59,13.53-6.24,3.68-12.06,6.02-17.46,7.02,1.18-2.67,3.29-6.47,6.33-11.4,3.04-4.93,6.58-10.19,10.63-15.79,4.05-5.59,8.23-10.94,12.53-16.04,4.3-5.1,8.31-9.27,12.02-12.53,3.71-3.26,6.75-4.89,9.11-4.89,2.02,0,3.04,1.25,3.04,3.76,0,6.18-1.73,12.45-5.19,18.8h-.01Z"/><path class="cls-1" d="M691.41,132.8c-1.52,0-3.08,2.25-4.68,6.77-1.61,4.51-5.27,11.03-11.01,19.55-.51,.84-1.65,2.26-3.42,4.26-1.77,2.01-3.63,3.84-5.57,5.51s-3.67,2.51-5.19,2.51c-1.86,0-2.79-2-2.79-6.01s.76-8.69,2.28-14.04c1.52-5.35,3.25-10.44,5.19-15.29,1.94-4.84,3.5-8.35,4.68-10.53-.68-1.17-1.94-3.09-3.8-5.76s-3.97-4.01-6.33-4.01c-2.87,0-5.23,3.38-7.09,10.15-.72,2.62-1.41,5.59-2.08,8.9-.88,1.97-3.05,6.14-6.52,12.53-.51,1.17-1.48,3.01-2.91,5.51-1.44,2.51-3.08,4.85-4.93,7.02-1.86,2.17-3.8,3.26-5.82,3.26s-3.76-1.59-5.19-4.76c-1.44-3.17-2.49-7.39-3.16-12.66-.68-5.26-1.01-10.9-1.01-16.92,0-6.85,.42-13.66,1.27-20.42,.84-6.77,2.11-12.24,3.79-16.42v-.75c0-1-.67-1.71-2.02-2.13-1.35-.42-2.95-.63-4.81-.63-3.54,0-6.45,1.04-8.73,3.13-2.28,2.09-4.22,4.18-5.82,6.27-1.61,2.09-3.25,3.13-4.94,3.13-1.18,0-2.78-.67-4.81-2.01,.84-2.17,1.86-5.05,3.04-8.65,1.18-3.59,2.19-7.1,3.04-10.53,.84-3.42,1.26-5.97,1.26-7.64,0-3.34-1.01-5.01-3.04-5.01-1.18,0-2.87,.96-5.06,2.88-2.2,1.92-4.18,4.8-5.95,8.65-1.77,3.84-2.66,8.77-2.66,14.79,0,2.17,.38,4.13,1.14,5.89s1.98,2.97,3.67,3.63c-2.19,7.69-4.64,15.12-7.34,22.31s-5.74,14.2-9.11,21.05c-1.18,2.34-1.77,4.18-1.77,5.51,0,1,.33,1.5,1.01,1.5,1.35,0,2.87-1.46,4.56-4.39,1.68-2.92,3.46-6.64,5.32-11.15,1.85-4.51,3.58-9.1,5.19-13.78,1.6-4.68,2.99-8.81,4.18-12.4,1.18-3.59,1.85-5.97,2.02-7.14,1.35,.84,3.25,1.63,5.69,2.38,2.44,.75,5.02,1.3,7.72,1.63-.17,3.51-.42,7.89-.76,13.16-.34,5.26-.51,10.65-.51,16.17,0,10.19,1.1,18.76,3.29,25.69,2.19,6.93,6.41,10.4,12.65,10.4,5.06,0,9.62-2.09,13.67-6.27,4.05-4.17,7.55-9.23,10.5-15.16,.47-.95,.91-1.89,1.36-2.83-.16,1.13-.32,2.27-.48,3.45-.51,3.18-.85,6.02-1.01,8.52-.17,2.51-.25,4.85-.25,7.02,0,4.18,.59,7.27,1.77,9.27,1.18,2.01,3.37,3.01,6.58,3.01,4.38,0,8.48-1.63,12.27-4.89,3.79-3.26,7.25-7.23,10.37-11.9,3.12-4.68,5.78-9.31,7.97-13.91,2.19-4.59,3.8-8.23,4.81-10.9,.34-1.17,.63-2.13,.89-2.88,.25-.75,.38-1.46,.38-2.13,0-1-.34-1.5-1.01-1.5h.02Z"/><path class="cls-1" d="M654.46,105.74c1.18,0,3.12-.5,5.82-1.5,1.85-.67,4.39-1.79,7.59-3.38s6.45-3.34,9.74-5.26c3.29-1.92,6.11-3.72,8.48-5.39,2.36-1.67,3.63-2.84,3.8-3.51,.33-.83-.09-2.09-1.27-3.76-1.18-1.67-2.19-2.51-3.04-2.51-.51,0-.97,.09-1.39,.25-.42,.17-1.23,.67-2.4,1.5-.51,.34-1.9,1.34-4.18,3.01-2.28,1.67-4.85,3.55-7.72,5.64s-5.57,4.05-8.1,5.89c-2.53,1.84-4.22,3.01-5.06,3.51-1.86,1.17-2.95,2.34-3.29,3.51-.17,1.34,.17,2.01,1.01,2.01h0Z"/></g><g><path class="cls-1" d="M909.82,106.24c-.51,0-1.52,1.59-3.04,4.76-1.52,3.18-3.08,6.73-4.68,10.65-1.61,3.93-3,6.89-4.18,8.9-5.06,9.19-9.03,13.78-11.89,13.78-2.2,0-4.18-2.34-5.95-7.02-1.77-4.68-3.25-10.65-4.43-17.92s-2.11-14.91-2.79-22.93c-.67-8.02-1.01-15.37-1.01-22.05,0-1.84,.04-3.63,.13-5.39,.08-1.76,.13-3.47,.13-5.14,0-5.18-1.48-9.69-4.43-13.53s-6.12-5.76-9.49-5.76c-2.2,0-3.97,1.5-5.32,4.51-1.35,3.01-2.78,7.69-4.3,14.03-.67,2.84-1.69,7.02-3.04,12.53s-2.91,11.78-4.68,18.8c-1.77,7.02-3.54,14.2-5.32,21.55-1.77,7.36-3.42,14.2-4.93,20.55-1.52,6.35-2.74,11.65-3.67,15.91-.93,4.26-1.39,6.89-1.39,7.89-1.01-2.34-2.02-6.35-3.04-12.03-1.01-5.68-1.94-12.11-2.78-19.3-.85-7.18-1.48-14.28-1.9-21.3-.42-7.02-.63-13.03-.63-18.04,0-5.51,.17-11.82,.51-18.92s.76-14.12,1.27-21.05c.51-6.93,1.01-12.91,1.52-17.92,.51-5.01,.84-8.18,1.01-9.52,0-.33,.04-.63,.13-.88,.08-.25,.13-.46,.13-.63,0-2.51-.93-4.93-2.78-7.27-1.86-2.34-3.76-4.3-5.69-5.89-1.94-1.59-3-2.38-3.16-2.38-.85,0-1.94,.96-3.29,2.88-1.35,1.92-2.91,5.43-4.68,10.53s-3.84,12.4-6.2,21.93c-1.01,4.35-2.45,10.36-4.3,18.04-1.86,7.69-3.8,16.25-5.82,25.69s-4.01,18.88-5.95,28.32c-1.94,9.44-3.63,18.26-5.06,26.44-1.44,8.19-2.4,14.79-2.91,19.8-.34-6.02-.63-12.19-.89-18.55-.25-6.35-.38-12.78-.38-19.3,0-11.69,.46-23.18,1.39-34.46s2.61-21.8,5.06-31.58c2.45-9.77,5.78-18.17,10-25.19v-.25c0-1.34-.89-2.76-2.66-4.26-1.77-1.5-3.67-2.79-5.69-3.88s-3.54-1.63-4.56-1.63c-.51,0-1.69,1.59-3.54,4.76-1.86,3.18-3.97,6.89-6.33,11.15-2.36,4.26-4.39,8.19-6.07,11.78-1.69,3.59-2.53,5.81-2.53,6.64s.25,1.25,.76,1.25,1.68-.88,3.54-2.63c1.85-1.76,3.54-3.38,5.06-4.89-1.52,7.19-2.91,16.29-4.18,27.32s-2.32,22.72-3.16,35.09c-.85,12.37-1.27,24.31-1.27,35.84,0,7.52,.21,14.58,.63,21.18s1.05,12.41,1.9,17.42c.34,1.67,1.6,3.17,3.8,4.51,2.19,1.34,4.56,2.38,7.09,3.13s4.3,1.13,5.32,1.13c.67,0,1.01-.09,1.01-.25-.17-.34-.25-1.17-.25-2.51,0-8.18,.55-17.71,1.65-28.57,1.1-10.86,2.61-22.31,4.56-34.34,1.94-12.03,4.34-24.02,7.21-35.96,2.87-11.94,6.07-23.01,9.62-33.21,.33,7.86,.84,17,1.52,27.44,.67,10.44,1.56,21.05,2.66,31.83s2.45,20.8,4.05,30.07,3.37,16.83,5.32,22.68c1.94,5.85,4.09,8.86,6.45,9.02,.84,.17,1.68,.25,2.53,.25h2.28c3.04,0,5.48-.58,7.34-1.75,1.86-1.17,2.79-3.34,2.79-6.52,0-1.34,.33-4.47,1.01-9.4,.67-4.93,1.56-10.9,2.66-17.92s2.28-14.28,3.54-21.8c1.26-7.52,2.57-14.57,3.92-21.18,1.35-6.6,2.61-11.94,3.79-16.04,1.18-4.09,2.11-6.14,2.79-6.14,.84,0,1.6,2.17,2.28,6.52,.67,4.35,1.39,9.82,2.15,16.41,.76,6.6,1.64,13.5,2.66,20.68,1.01,7.19,2.23,13.7,3.67,19.55,1.43,5.85,3.25,10.03,5.44,12.53,2.87,3.34,5.99,5.01,9.36,5.01s7.21-2.01,11.52-6.02,8.98-10.94,14.05-20.8c.67-1.5,1.65-3.72,2.91-6.64,1.26-2.92,2.4-5.97,3.42-9.15,1.01-3.17,1.52-5.85,1.52-8.02,0-2.01-.25-3.01-.76-3.01l-.06,.04Z"/><path class="cls-1" d="M1333.46,80.93c-3.88-1-7.68-1.5-11.39-1.5-6.75,0-13.58,.71-20.5,2.13s-13.58,3.3-19.99,5.64c-2.02,.34-4.09,.88-6.2,1.63s-4.09,1.55-5.95,2.38c-1.18-.83-2.49-1.54-3.92-2.13-1.44-.58-3.08-.88-4.93-.88-1.18,0-2.45,.38-3.8,1.13-1.35,.75-2.53,2.05-3.54,3.88l-3.8,7.52c-2.7,1.34-5.15,2.63-7.34,3.88s-4.13,2.3-5.82,3.13c-.85,.5-1.65,.84-2.4,1-.76,.17-1.39,.25-1.9,.25-.85,0-1.27-.33-1.27-1,0-.33,.08-.67,.25-1,0-.16,.04-.29,.13-.38,.08-.08,.13-.21,.13-.38,0-.5-.34-.75-1.01-.75-1.86,0-3.42,.75-4.68,2.26-1.27,1.5-2.15,3.09-2.66,4.76s-.76,2.92-.76,3.76c0,1,.38,1.92,1.14,2.76s1.98,1.25,3.67,1.25c2.36,0,5.06-.75,8.1-2.26,3.04-1.5,5.99-3.17,8.86-5.01-2.82,6.75-5.5,13.92-8.05,21.45-.3,.44-.61,.93-.93,1.48-1.61,2.76-3.42,5.98-5.44,9.65-2.02,3.68-4.13,6.89-6.33,9.65s-4.39,4.13-6.58,4.13c-1.86,0-4.14-2.17-6.83-6.52-2.7-4.34-5.06-11.28-7.09-20.8-1.35-6.35-2.19-12.32-2.53-17.92-.34-5.6-.68-10.57-1.01-14.91-.34-4.34-1.1-7.77-2.28-10.27-1.18-2.51-3.29-3.76-6.33-3.76-2.2,0-4.09,.96-5.69,2.88-1.61,1.92-3.12,5.26-4.56,10.02-1.44,4.76-3.16,11.49-5.19,20.18-2.53,10.02-5.06,19.26-7.59,27.69-2.53,8.44-4.3,17.34-5.31,26.69v-2.26c0-1.84-.04-3.97-.13-6.39s-.13-5.22-.13-8.39c0-13.2,.84-25.77,2.53-37.72,1.68-11.94,3.46-22.34,5.31-31.2,.17-.33,.25-.75,.25-1.25v-1.25c0-1.5-.8-3.3-2.4-5.39-1.61-2.09-4.93-3.13-10-3.13s-8.65,.63-11.26,1.88c-2.62,1.25-3.92,2.05-3.92,2.38,2.87,.5,5.1,.88,6.71,1.13,1.6,.25,2.57,.55,2.91,.88,.17,2,.29,4.35,.38,7.02,.08,2.67,.13,5.51,.13,8.52,0,9.19-.21,19.55-.63,31.08-.09,2.39-.16,4.73-.23,7.06-.97,.1-1.62,.57-1.92,1.46-1.18,2.68-2.91,5.98-5.19,9.9-2.28,3.93-4.85,7.81-7.72,11.65-2.87,3.85-5.95,7.02-9.24,9.52-3.29,2.51-6.71,3.76-10.25,3.76-4.05,0-6.92-2.51-8.6-7.52-1.69-5.01-2.53-10.86-2.53-17.54,0-4.01,.25-8.02,.76-12.03,5.57-2.51,11.05-5.51,16.45-9.02,5.4-3.51,9.87-7.35,13.41-11.53,3.54-4.17,5.32-8.35,5.32-12.53,0-2.17-1.23-4.17-3.67-6.02-2.45-1.84-5.53-3.55-9.24-5.14s-7.51-2.96-11.39-4.13c-1.01-1.5-2.7-3.47-5.06-5.89-2.36-2.42-4.47-3.63-6.33-3.63s-3.12,1.17-3.79,3.51c-.34,1.34-1.14,4.26-2.4,8.77-1.27,4.51-2.57,9.94-3.92,16.29-1.35,6.35-2.45,12.95-3.29,19.8-.26,2.07-.53,4.43-.79,7.06-.66,.47-1.25,1.22-1.74,2.34-.85,1.92-3.04,6.14-6.58,12.66-.51,1.17-1.48,3.01-2.91,5.51-1.44,2.51-3.08,4.85-4.93,7.02-1.86,2.17-3.8,3.26-5.82,3.26s-3.76-1.59-5.19-4.76c-1.44-3.17-2.49-7.39-3.16-12.66-.68-5.26-1.01-10.9-1.01-16.92,0-6.85,.42-13.66,1.27-20.42,.84-6.77,2.11-12.24,3.79-16.42v-.75c0-1-.67-1.71-2.02-2.13s-2.95-.63-4.81-.63c-3.54,0-6.45,1.04-8.73,3.13s-4.22,4.18-5.82,6.27c-1.61,2.09-3.25,3.13-4.94,3.13-1.18,0-2.78-.67-4.81-2.01,.84-2.17,1.86-5.05,3.04-8.65,1.18-3.59,2.19-7.1,3.04-10.53,.84-3.42,1.26-5.97,1.26-7.64,0-3.34-1.01-5.01-3.04-5.01-1.18,0-2.87,.96-5.06,2.88-2.2,1.92-4.18,4.8-5.95,8.65-.3,.65-.56,1.33-.81,2.04-3.56-.85-7.04-1.29-10.45-1.29-6.75,0-13.58,.71-20.5,2.13-6.92,1.42-13.58,3.3-19.99,5.64-2.02,.34-4.09,.88-6.2,1.63s-4.09,1.55-5.95,2.38c-1.18-.83-2.49-1.54-3.92-2.13-1.44-.58-3.08-.88-4.93-.88-1.18,0-2.45,.38-3.8,1.13s-2.53,2.05-3.54,3.88l-3.8,7.52c-2.7,1.34-5.15,2.63-7.34,3.88s-4.13,2.3-5.82,3.13c-.85,.5-1.65,.84-2.4,1-.76,.17-1.39,.25-1.9,.25-.85,0-1.27-.33-1.27-1,0-.33,.08-.67,.25-1,0-.16,.04-.29,.13-.38,.08-.08,.13-.21,.13-.38,0-.5-.34-.75-1.01-.75-1.86,0-3.42,.75-4.68,2.26-1.27,1.5-2.15,3.09-2.66,4.76-.51,1.67-.76,2.92-.76,3.76,0,1,.38,1.92,1.14,2.76s1.98,1.25,3.67,1.25c2.36,0,5.06-.75,8.1-2.26,3.04-1.5,5.99-3.17,8.86-5.01-3.21,7.69-6.24,15.87-9.11,24.56s-4.3,16.04-4.3,22.05c0,5.68,1.43,10.49,4.3,14.41,2.87,3.93,7.34,5.89,13.41,5.89,4.89,0,9.95-1.84,15.18-5.51s10.29-8.48,15.18-14.41c4.89-5.93,9.24-12.32,13.03-19.17,3.8-6.85,6.83-13.53,9.11-20.05s3.42-12.11,3.42-16.79c0-4.34-.89-7.93-2.66-10.78-1.77-2.84-4.01-4.84-6.71-6.02,3.37-.83,7-1.46,10.88-1.88s7.93-.63,12.15-.63c3.37,0,6.79,.34,10.25,1,1.1,.21,2.15,.38,3.17,.52-.34,2.21-.52,4.62-.52,7.24,0,2.17,.38,4.13,1.14,5.89s1.98,2.97,3.67,3.63c-2.19,7.69-4.64,15.12-7.34,22.31s-5.74,14.2-9.11,21.05c-1.18,2.34-1.77,4.18-1.77,5.51,0,1,.33,1.5,1.01,1.5,1.35,0,2.87-1.46,4.56-4.39,1.68-2.92,3.46-6.64,5.32-11.15,1.85-4.51,3.58-9.1,5.19-13.78,1.6-4.68,2.99-8.81,4.18-12.4,1.18-3.59,1.85-5.97,2.02-7.14,1.35,.84,3.25,1.63,5.69,2.38,2.44,.75,5.02,1.3,7.72,1.63-.17,3.51-.42,7.89-.76,13.16-.34,5.26-.51,10.65-.51,16.17,0,10.19,1.1,18.76,3.29,25.69,2.19,6.93,6.41,10.4,12.65,10.4,5.06,0,9.62-2.09,13.67-6.27,4.05-4.17,7.55-9.23,10.5-15.16,1.87-3.76,3.53-7.42,5.03-11.02-.05,1.52-.1,3.04-.1,4.62,0,5.85,.55,11.65,1.64,17.42,1.1,5.76,3.2,10.49,6.33,14.16,3.12,3.68,7.55,5.51,13.29,5.51,5.4,0,10.16-1.75,14.3-5.26,4.13-3.51,7.63-7.1,10.5-10.78,2.02-2.67,4.09-5.8,6.2-9.4,2.11-3.59,4.17-7.39,6.2-11.4,.58-1.24,1.06-2.35,1.48-3.35-.14,6.2-.21,12.18-.21,17.88,0,6.01,.17,11.45,.51,16.29,.33,4.85,.84,8.69,1.52,11.53,1.18,4.17,3.25,7.56,6.2,10.15s5.27,3.88,6.96,3.88c1.18,0,1.77-.59,1.77-1.75,0-.5-.13-1.21-.38-2.13s-.38-2.47-.38-4.64c0-4.35,.42-10.56,1.27-18.67,.84-8.1,2.15-17.21,3.92-27.32,1.77-10.11,4.09-20.34,6.96-30.7,.33-1.67,.89-2.84,1.64-3.51,.76-.67,1.31-1,1.65-1s1.01,1.34,2.02,4.01,2.23,6.06,3.67,10.15c1.43,4.1,2.99,8.39,4.68,12.91,1.68,4.51,3.5,8.65,5.44,12.41,1.94,3.76,3.92,6.48,5.95,8.14,3.88,3.34,7.76,5.01,11.64,5.01,5.06,0,9.03-2.55,11.9-7.64,.88-1.56,1.82-3.34,2.83-5.3-.36,2.47-.55,4.79-.55,6.92,0,5.68,1.43,10.49,4.3,14.41,2.87,3.93,7.34,5.89,13.41,5.89,4.89,0,9.95-1.84,15.18-5.51,5.23-3.67,10.29-8.48,15.18-14.41,4.89-5.93,9.24-12.32,13.03-19.17,3.8-6.85,6.83-13.53,9.11-20.05s3.42-12.11,3.42-16.79c0-4.34-.89-7.93-2.66-10.78-1.77-2.84-4.01-4.84-6.71-6.02,3.37-.83,7-1.46,10.88-1.88s7.93-.63,12.15-.63c3.37,0,6.79,.34,10.25,1,3.46,.67,6.54,1,9.24,1,1.35,0,2.02-.33,2.02-1,0-2.17-1.94-3.76-5.82-4.76v.06Zm-222.07,27.57c1.43-6.02,3.16-11.69,5.19-17.04,3.71,1.34,6.96,2.97,9.74,4.89,2.79,1.92,4.18,3.8,4.18,5.64,0,5.18-2.32,9.99-6.96,14.41-4.64,4.43-9.91,8.23-15.82,11.4,1.01-6.85,2.23-13.28,3.67-19.3h0Zm-124.26,12.03c-1.27,4.51-2.79,8.77-4.56,12.78s-3.33,7.19-4.68,9.52c-2.87,5.18-6.16,10.19-9.87,15.04-3.71,4.85-7.47,8.86-11.26,12.03-3.8,3.18-7.47,4.76-11.01,4.76-4.73,0-7.09-3.67-7.09-11.03,0-5.01,1.05-10.86,3.16-17.54s4.76-13.57,7.97-20.68c3.2-7.1,6.41-13.57,9.62-19.42,.34-.83,.8-1.63,1.39-2.38s1.22-1.46,1.9-2.13c3.2-1.34,6.24-2.51,9.11-3.51s5.23-1.5,7.09-1.5c3.88,0,6.54,1.13,7.97,3.38s2.15,5.05,2.15,8.39c0,3.68-.63,7.77-1.9,12.28h.01Zm305.21,0c-1.27,4.51-2.79,8.77-4.56,12.78s-3.33,7.19-4.68,9.52c-2.87,5.18-6.16,10.19-9.87,15.04-3.71,4.85-7.47,8.86-11.26,12.03-3.8,3.18-7.47,4.76-11.01,4.76-4.73,0-7.09-3.67-7.09-11.03,0-5.01,1.05-10.86,3.16-17.54s4.76-13.57,7.97-20.68c3.2-7.1,6.41-13.57,9.62-19.42,.34-.83,.8-1.63,1.39-2.38s1.22-1.46,1.9-2.13c3.2-1.34,6.24-2.51,9.11-3.51s5.23-1.5,7.09-1.5c3.88,0,6.54,1.13,7.97,3.38,1.43,2.25,2.15,5.05,2.15,8.39,0,3.68-.63,7.77-1.9,12.28h.01Z"/></g></g></g></g></svg>