<?xml version="1.0" encoding="UTF-8"?><svg id="Capa_2" xmlns="http://www.w3.org/2000/svg" viewBox="0 0 120 106.64"><defs><style>.cls-1{fill:#4a2812;}</style></defs><g id="Capa_1-2"><path class="cls-1" d="M119.93,39.36l-.07-2.29-2.29-.07c-11-.32-20.92,.52-29.53,2.49-3.98-12.39-12.84-25.14-26.38-37.92l-1.67-1.57-1.67,1.57c-13.54,12.79-22.4,25.53-26.38,37.93-8.61-1.97-18.52-2.81-29.53-2.49l-2.29,.07-.07,2.29c-.56,19.68,2.53,35.63,9.21,47.42,1.12,1.98,2.46,3.91,3.98,5.76,6.81,8.25,16.65,13.5,26.32,14.05,.58,.03,1.15,.05,1.72,.05,6.95,0,13.35-2.41,18.71-7.03,5.36,4.62,11.76,7.03,18.71,7.03,.57,0,1.14-.02,1.72-.05,9.67-.54,19.51-5.8,26.32-14.05,1.52-1.84,2.86-3.78,3.98-5.76,6.67-11.79,9.77-27.74,9.21-47.42Zm-85.05,9.6c.2-2.09,.57-4.13,1.1-6.05,3.24-11.69,11.31-23.86,24.01-36.21,12.7,12.35,20.77,24.53,24.01,36.21,.53,1.92,.9,3.96,1.1,6.05,.89,9.33-1.9,18.61-7.46,24.85-4.55,5.09-10.65,7.85-17.65,7.98-7-.13-13.1-2.89-17.65-7.98-5.57-6.23-8.36-15.52-7.46-24.85Zm4.95,52.78c-8.34-.47-16.88-5.06-22.85-12.29-1.34-1.62-2.52-3.32-3.5-5.06-5.97-10.55-8.87-24.87-8.63-42.58,9.6-.14,18.27,.67,25.83,2.39-.29,1.4-.51,2.84-.65,4.3-1.02,10.65,2.22,21.32,8.68,28.55,5.48,6.14,12.82,9.46,21.23,9.6h.08c1.14-.02,2.25-.1,3.35-.24-1.15,3.09-2.96,5.94-5.43,8.5-5.04,4.86-11.3,7.22-18.12,6.84Zm66.66-17.35c-.98,1.73-2.16,3.44-3.5,5.06-5.96,7.23-14.5,11.82-22.85,12.29-6.23,.35-11.99-1.6-16.78-5.64,2.64-3.29,4.47-6.93,5.47-10.88,4.75-1.54,8.96-4.29,12.43-8.17,6.45-7.22,9.7-17.89,8.68-28.55-.14-1.46-.36-2.9-.65-4.3,7.56-1.71,16.23-2.52,25.83-2.39,.24,17.71-2.66,32.03-8.63,42.58Z"/></g></svg>